<svg width="1309" height="533" viewBox="0 0 1309 533" fill="none" xmlns="http://www.w3.org/2000/svg">
<rect width="1309" height="533" fill="#F5F5F5"/>
<path d="M665.494 335.702C656.801 335.265 645.449 332.93 637.728 330.013C615.844 321.599 597.743 303.411 589.51 281.527C586.084 272.384 585.215 266.986 585.215 254.634C585.266 245.443 585.42 243.206 586.391 238.829C590.022 222.829 597.078 210.185 609.043 198.416C615.895 191.705 621.57 187.814 631.439 183.146C652.352 173.225 673.01 171.523 694.128 177.845C696.378 178.526 698.934 179.401 699.753 179.742C700.622 180.082 702.974 181.055 704.968 181.881C716.626 186.696 730.534 197.832 738.204 208.483C743.522 215.923 748.226 225.65 750.374 233.674C751.959 239.558 753.186 248.215 753.186 253.564C753.289 270.634 763.464 284.494 779.775 289.746C784.275 291.205 793.479 291.788 798.285 290.913C810.404 288.773 822.216 279.387 826.46 268.64C828.709 262.95 829.067 261.151 829.067 255.12C829.016 250.695 828.761 248.36 827.891 245.394C824.159 232.263 813.932 222.78 799.615 219.133C795.166 218.015 785.195 218.355 780.542 219.765C772.259 222.294 763.413 228.47 760.396 233.868C759.476 235.522 758.964 235.181 758.351 232.409C757.839 230.221 756.766 226.914 755.283 223.024C755.078 222.489 753.237 218.841 751.192 214.902C747.459 207.705 743.931 202.55 739.278 197.346L736.722 194.526L738.971 192.629C748.584 185.772 748.533 185.577 751.141 184.313C752.675 183.34 751.11 184.325 752.675 183.34C754.24 182.356 752.675 183.34 754.209 182.368C756.766 181.395 756.203 181.784 757.277 181.395C761.879 179.936 773.026 176.094 779.52 175.073C793.99 172.836 810.966 174.927 824.261 180.617C833.618 184.605 836.993 186.404 842.72 190.489C854.48 198.854 866.65 215.145 871.303 228.616C877.286 246.123 876.877 268.494 870.28 284.348C863.991 299.326 853.56 311.97 839.856 321.259C825.488 330.985 809.944 335.702 792.303 335.751C769.14 335.751 748.584 327.873 732.324 312.651C715.962 297.332 708.087 279.485 706.962 254.974C706.655 248.944 704.61 240.969 702.258 236.835C698.679 230.61 692.594 225.212 685.435 222.002C679.402 219.279 675.413 218.404 668.817 218.404C662.068 218.404 658.795 219.182 652.046 222.343C647.546 224.434 646.063 225.455 642.279 229.005C638.547 232.555 637.422 233.966 635.427 237.856C632.155 244.227 631.337 247.582 631.337 254.391C631.337 260.713 632.155 264.603 634.507 269.564C640.848 283.035 654.398 291.351 669.942 291.351C677.97 291.351 685.18 288.968 692.389 284.007C695.457 281.868 699.599 277.685 700.11 276.178C700.468 275.205 702.053 276.178 702.053 277.393C702.053 280.457 708.445 295.047 712.382 301.077C714.786 304.724 719.183 310.365 721.279 312.505C722.046 313.332 723.12 314.451 723.683 315.083L724.705 316.153L723.478 317.417C722.2 318.73 713.2 324.906 712.536 324.906C712.331 324.906 711.564 325.295 710.848 325.782C708.087 327.581 696.838 331.812 691.213 333.174C683.185 335.07 673.01 336.092 665.494 335.702Z" fill="#393C41"/>
<path d="M137.394 329.332L134.991 329.186L135.093 254.196L136.013 178.964L136.422 175.316C139.593 159.025 153.501 149.396 170.272 146.867C172.369 146.575 191.39 146.38 221.405 146.38C271.311 146.38 272.18 146.429 279.185 148.472C285.27 150.271 292.377 154.502 296.57 158.879C301.479 163.936 305.57 172.009 306.746 179.012C307.104 181.055 307.308 206.927 307.308 255.704V329.234H287.622H267.936V299.326V269.418L221.303 269.515L174.619 269.661L174.363 299.472L174.107 329.332L156.978 329.38C147.569 329.429 138.774 329.429 137.394 329.332ZM267.936 208.434C267.936 192.629 267.783 185.723 267.373 185.48C266.658 185.042 175.692 185.042 174.925 185.48C174.516 185.723 174.363 192.045 174.363 208.434V230.999H221.149H267.936V208.434Z" fill="#393C41"/>
<path d="M364.833 329.672C351.998 329.089 343.97 325.928 336.914 318.681C333.13 314.84 333.386 315.131 328.937 305.648L327.25 299.569L326.841 245.734L326.688 191.121H338.244C349.748 191.121 350.066 191.368 349.748 191.121C350.771 191.121 350.311 191.121 351.282 191.121C352.254 191.121 352.816 191.121 353.328 191.121C358.594 191.219 355.629 191.17 358.594 191.219L363.81 191.365L363.912 241.455C363.963 269.029 364.117 291.934 364.27 292.421C364.475 293.199 366.367 293.247 394.694 293.247H424.914V242.184V191.121H443.577H462.241V243.546C462.241 300.25 462.189 301.223 459.479 307.983C456.769 314.791 452.423 319.849 445.878 323.836C441.992 326.219 435.958 328.505 431.51 329.234C427.828 329.818 375.877 330.158 364.833 329.672Z" fill="#393C41"/>
<path d="M903.517 329.818L902.085 329.672V238.342C902.085 150.466 902.136 146.964 903.005 146.235C903.875 145.505 905.92 145.408 921.618 145.408C937.418 145.408 939.361 145.505 939.974 146.235C940.639 146.964 940.895 175.219 940.946 240.823C940.946 241.358 952.553 240.871 955.621 240.239C957.973 239.753 958.433 239.412 960.479 236.738C961.655 235.133 966.052 229.54 970.143 224.239C974.285 218.987 979.193 212.762 981.085 210.331C982.926 207.948 987.068 202.696 990.238 198.659L996.067 191.608L1015.75 191.219C1037.23 191.121 1037.08 191.073 1037.08 193.845C1037.08 195.255 1035.59 198.173 1033.85 200.167C1033.19 200.945 1031.14 203.668 1029.3 206.197C1026.13 210.623 1018.16 221.127 1012.79 228.033C1011.41 229.832 1008.44 233.722 1006.24 236.64C1004.04 239.558 1000.77 243.789 998.982 246.075C994.022 252.251 989.522 258.427 989.522 258.962C989.522 259.254 991.414 261.88 993.715 264.798C996.016 267.764 1001.28 274.621 1005.37 280.117C1009.46 285.612 1013.76 291.302 1014.99 292.761C1016.16 294.22 1019.9 299.18 1023.32 303.703C1026.75 308.274 1030.53 313.186 1031.66 314.645C1035.59 319.557 1037.74 323.447 1038 326.073C1038.35 330.158 1039.33 329.964 1016.93 329.818C1003.48 329.672 997.243 329.478 996.732 329.089C996.374 328.797 995.096 327.241 993.92 325.684C992.795 324.128 991.363 322.28 990.8 321.551C990.238 320.821 988.09 318.049 986.096 315.375C984.051 312.7 980.216 307.691 977.557 304.189C974.898 300.736 970.705 295.144 968.2 291.837C958.945 279.533 959.609 280.214 957.206 279.63C955.979 279.339 954.343 278.852 953.473 278.512C952.655 278.22 949.536 277.928 946.571 277.928H941.202L941.048 303.606C940.946 324.809 940.793 329.332 940.23 329.526C939.463 329.818 905.818 330.061 903.517 329.818Z" fill="#393C41"/>
<path d="M1048.17 328.943C1047.86 328.602 1047.76 292.664 1047.81 237.467C1047.97 161.262 1048.07 146.38 1048.68 145.748C1049.3 145.019 1051.24 144.922 1067.14 144.922C1083.66 144.922 1084.94 144.97 1085.7 145.797C1086.52 146.624 1086.57 150.66 1086.57 193.699V240.725H1091.33C1094.09 240.725 1097.16 240.434 1098.64 239.996C1100.02 239.607 1098.64 239.996 1102.27 239.266C1104.98 237.807 1104.98 237.807 1106 235.862C1106.41 235.23 1107.69 233.625 1108.87 232.264C1109.99 230.902 1111.47 229.005 1112.14 228.081C1112.85 227.157 1113.83 225.893 1114.39 225.309C1115.56 223.996 1118.27 220.446 1121.96 215.437C1124.36 212.13 1126.92 208.823 1128.25 207.364C1129.01 206.489 1131.62 203.182 1136.78 196.617L1141.39 190.635H1161.53H1181.68L1182.5 191.899C1183.83 193.796 1184.49 192.726 1168.28 214.075C1152.18 235.23 1142.87 247.388 1136.84 255.023L1134.18 258.427L1135.15 259.643C1140.72 266.597 1147.01 274.962 1154.53 285.223C1155.14 286.05 1157.19 288.725 1159.08 291.205C1160.97 293.685 1163.99 297.673 1165.83 300.104C1167.67 302.487 1171.04 306.913 1173.4 309.928C1178.97 317.077 1183.11 323.35 1183.52 325.247C1183.72 326.317 1183.57 327.192 1183.01 328.019L1182.19 329.234H1162.5H1142.82L1141.59 327.921C1140.26 326.462 1131.26 314.791 1120.42 300.542C1103.75 278.561 1104.47 279.387 1102.78 278.998C1101.86 278.755 1100.33 278.366 1099.36 278.026C1097.31 277.393 1088.82 277.248 1087.49 277.831C1086.62 278.172 1086.57 280.02 1086.47 303.752L1086.32 329.283L1067.5 329.38C1054.1 329.429 1048.53 329.332 1048.17 328.943Z" fill="#393C41"/>
<path d="M513.629 328.748C505.703 327.63 499.977 325.344 494.812 321.259C490.517 317.806 487.296 313.964 484.995 309.539C480.444 300.639 480.648 304.822 480.648 220.689V147.353H499.312H517.975L518.078 168.605L518.231 189.857L540.474 189.76C557.399 189.711 562.768 189.857 563.074 190.295C563.535 190.975 563.637 220.641 563.177 223.899L562.819 226.185L541.036 226.136C529.071 226.087 518.947 226.087 518.64 226.087C517.771 226.136 517.669 290.329 518.538 291.837C519.049 292.761 519.663 292.81 540.372 292.761C552.081 292.761 562.205 292.712 562.87 292.761H563.995V310.22C563.995 319.849 563.841 328.019 563.688 328.456C563.432 329.137 560.876 329.235 539.758 329.186C526.821 329.137 515.061 328.943 513.629 328.748Z" fill="#393C41"/>
<path d="M660.38 351.605C646.114 350.243 632.359 345.915 619.73 338.766C596.771 325.782 579.386 303.8 572.892 279.679C570.284 269.953 569.62 265.236 569.62 256.142C569.62 242.087 571.972 230.95 577.596 217.966C584.806 201.383 598.612 185.577 614.719 175.413C627.4 167.389 637.115 163.45 650.154 160.97C673.112 156.593 695.457 159.365 715.348 168.994C720.103 171.28 729.461 176.629 730.177 177.407C731.711 179.109 732.017 179.012 737.949 175.268C744.903 170.793 758.453 164.374 764.436 162.721C773.997 159.997 782.179 158.927 793.172 158.976C797.467 158.976 801.711 159.073 802.529 159.219C803.399 159.316 805.904 159.657 808.154 159.949C827.482 162.526 849.93 173.079 863.378 185.966C869.718 191.997 871.866 194.526 876.928 201.772C886.95 216.021 892.063 230.318 893.853 249.333C894.824 259.643 893.341 271.801 889.66 283.424C887.461 290.427 884.7 296.603 881.172 302.341C879.945 304.335 878.973 306.037 878.973 306.183C878.973 306.621 871.252 316.639 869.309 318.682C858.929 329.769 848.856 337.259 836.788 342.803C808.717 355.787 774.713 355.106 746.641 341.052C741.17 338.329 737.591 336.237 733.245 333.174C732.478 332.639 731.711 332.979 727.415 335.702C716.933 342.511 702.82 348.006 689.782 350.438C682.725 351.702 668.101 352.286 660.38 351.605ZM682.214 343.094C699.957 341.003 717.547 334 728.643 324.566C729.358 323.982 730.534 323.107 731.301 322.669C732.682 321.843 732.682 321.843 734.881 323.739C738.153 326.608 747.868 332.687 752.215 334.633C766.276 341.003 779.827 343.873 794.86 343.727C806.876 343.629 818.79 341.149 831.42 336.092C845.839 330.353 861.588 317.077 870.894 302.828C873.911 298.208 878.871 288.53 880.405 284.202C883.728 275.108 885.262 265.819 885.211 255.266C885.211 250.841 885.058 246.804 884.956 246.269C884.802 245.734 884.547 244.081 884.342 242.622C883.882 239.218 881.888 231.34 880.149 226.33C877.081 217.431 870.332 205.857 863.735 198.319C845.737 177.748 814.699 165.201 786.832 167.243C778.344 167.876 773.333 168.848 765.612 171.377C754.976 174.83 747.613 178.574 738.562 185.042C733.245 188.884 732.835 188.155 731.199 188.69C730.79 188.155 721.484 181.736 717.649 179.547C708.752 174.587 702.105 171.961 692.696 169.724C683.697 167.535 679.095 167.097 668.357 167.389C653.426 167.778 643.353 170.161 629.854 176.435C615.69 183.097 602.805 193.65 594.93 205.176C586.647 217.334 584.192 222.245 581.38 232.653C578.977 241.455 578.159 248.944 578.466 258.184C578.875 269.612 580.102 275.497 584.55 286.877C589.152 298.791 595.953 308.663 606.128 318.292C611.446 323.301 613.645 325.004 621.622 330.11C637.831 340.517 661.352 345.526 682.214 343.094Z" fill="#785B9B"/>
</svg>
