<svg width="1049" height="208" viewBox="0 0 1049 208" fill="none" xmlns="http://www.w3.org/2000/svg">
<rect width="1049" height="208" fill="#F5F5F5"/>
<path d="M530.503 190.781C521.81 190.343 510.459 188.009 502.738 185.091C480.853 176.678 462.752 158.49 454.52 136.606C451.094 127.463 450.224 122.065 450.224 109.712C450.276 100.521 450.429 98.284 451.4 93.9072C455.031 77.9075 462.087 65.2633 474.052 53.4945C480.904 46.7834 486.58 42.8929 496.448 38.2243C517.362 28.3035 538.019 26.6014 559.137 32.9235C561.387 33.6043 563.944 34.4797 564.762 34.8201C565.631 35.1605 567.983 36.1331 569.977 36.9599C581.636 41.7744 595.544 52.911 603.214 63.5612C608.532 71.0018 613.236 80.7281 615.383 88.7523C616.969 94.6367 618.196 103.293 618.196 108.643C618.298 125.712 628.473 139.572 644.785 144.824C649.284 146.283 658.488 146.867 663.295 145.991C675.413 143.852 687.225 134.466 691.469 123.718C693.719 118.028 694.077 116.229 694.077 110.199C694.026 105.773 693.77 103.439 692.901 100.472C689.168 87.342 678.942 77.8589 664.624 74.2115C660.176 73.093 650.205 73.4334 645.552 74.8437C637.268 77.3725 628.422 83.5487 625.405 88.9468C624.485 90.6003 623.974 90.2599 623.36 87.4879C622.849 85.2995 621.775 81.9925 620.292 78.102C620.088 77.5671 618.247 73.9197 616.202 69.9806C612.469 62.7831 608.941 57.6282 604.288 52.4246L601.731 49.604L603.981 47.7074C613.594 40.8504 613.543 40.6558 616.15 39.3914C617.684 38.4188 616.119 39.4032 617.684 38.4188C619.249 37.4344 617.684 38.4188 619.218 37.4462C621.775 36.4735 621.213 36.8626 622.286 36.4735C626.888 35.0146 638.035 31.1727 644.529 30.1515C659 27.9144 675.976 30.0056 689.27 35.6954C698.628 39.6832 702.002 41.4826 707.729 45.5676C719.49 53.9322 731.659 70.2237 736.313 83.6946C742.295 101.202 741.886 123.572 735.29 139.426C729.001 154.405 718.569 167.049 704.866 176.337C690.497 186.064 674.953 190.781 657.312 190.83C634.149 190.83 613.594 182.951 597.333 167.73C580.971 152.411 573.097 134.563 571.972 110.053C571.665 104.023 569.62 96.047 567.267 91.9133C563.688 85.6885 557.603 80.2904 550.445 77.0808C544.411 74.3574 540.423 73.482 533.827 73.482C527.077 73.482 523.804 74.2601 517.055 77.4212C512.555 79.5123 511.072 80.5336 507.289 84.0837C503.556 87.6338 502.431 89.0441 500.437 92.9346C497.164 99.3053 496.346 102.661 496.346 109.469C496.346 115.791 497.164 119.682 499.516 124.642C505.857 138.113 519.407 146.429 534.951 146.429C542.979 146.429 550.189 144.046 557.399 139.086C560.467 136.946 564.608 132.764 565.12 131.256C565.478 130.283 567.063 131.256 567.063 132.472C567.063 135.536 573.454 150.125 577.392 156.155C579.795 159.803 584.192 165.444 586.289 167.584C587.056 168.41 588.13 169.529 588.692 170.161L589.715 171.231L588.488 172.496C587.209 173.809 578.21 179.985 577.545 179.985C577.341 179.985 576.574 180.374 575.858 180.86C573.097 182.659 561.847 186.89 556.223 188.252C548.195 190.149 538.019 191.17 530.503 190.781Z" fill="#393C41"/>
<path d="M2.40325 184.41L0 184.264L0.102272 109.275L1.02266 34.042L1.43171 30.3946C4.60195 14.1031 18.5101 4.47407 35.2816 1.94524C37.3781 1.65345 56.3995 1.45892 86.4145 1.45892C136.32 1.45892 137.189 1.50755 144.195 3.55007C150.279 5.34943 157.387 9.58037 161.58 13.9572C166.488 19.0149 170.579 27.0877 171.755 34.0906C172.113 36.1331 172.318 62.005 172.318 110.782V184.313H152.631H132.945V154.405V124.496L86.3122 124.594L39.6279 124.739L39.3723 154.551L39.1166 184.41L21.9871 184.459C12.5787 184.507 3.78383 184.507 2.40325 184.41ZM132.945 63.5126C132.945 47.7074 132.792 40.8017 132.383 40.5586C131.667 40.1209 40.7017 40.1209 39.9347 40.5586C39.5257 40.8017 39.3723 47.1238 39.3723 63.5126V86.0775H86.1588H132.945V63.5126Z" fill="#393C41"/>
<path d="M229.842 184.751C217.008 184.167 208.98 181.006 201.923 173.76C198.14 169.918 198.395 170.21 193.947 160.727L192.259 154.648L191.85 100.813L191.697 46.1998H203.253C214.758 46.1998 215.076 46.446 214.758 46.1998C215.78 46.1998 215.32 46.1998 216.292 46.1998C217.263 46.1998 217.826 46.1998 218.337 46.1998C223.604 46.2971 220.638 46.2484 223.604 46.2971L228.819 46.443L228.922 96.5333C228.973 124.107 229.126 147.013 229.28 147.499C229.484 148.277 231.376 148.326 259.704 148.326H289.923V97.2628V46.1998H308.586H327.25V98.6244C327.25 155.329 327.199 156.301 324.489 163.061C321.779 169.869 317.432 174.927 310.887 178.915C307.001 181.298 300.968 183.583 296.519 184.313C292.838 184.897 240.887 185.237 229.842 184.751Z" fill="#393C41"/>
<path d="M768.526 184.897L767.094 184.751V93.4209C767.094 5.54397 767.146 2.04251 768.015 1.31304C768.884 0.583566 770.929 0.486298 786.627 0.486298C802.427 0.486298 804.37 0.583566 804.984 1.31304C805.649 2.04251 805.904 30.2973 805.955 95.9011C805.955 96.436 817.562 95.9497 820.63 95.3175C822.983 94.8312 823.443 94.4908 825.488 91.816C826.664 90.2112 831.062 84.6186 835.152 79.3178C839.294 74.0656 844.203 67.8408 846.095 65.4092C847.935 63.0263 852.077 57.7741 855.247 53.7377L861.077 46.6861L880.763 46.2971C902.238 46.1998 902.085 46.1512 902.085 48.9232C902.085 50.3335 900.602 53.2514 898.864 55.2452C898.199 56.0233 896.154 58.7467 894.313 61.2755C891.143 65.701 883.166 76.2054 877.797 83.111C876.416 84.9104 873.451 88.8009 871.252 91.7188C869.053 94.6367 865.781 98.8676 863.991 101.153C859.031 107.329 854.532 113.506 854.532 114.041C854.532 114.332 856.423 116.958 858.724 119.876C861.025 122.843 866.292 129.7 870.383 135.195C874.473 140.691 878.769 146.38 879.996 147.839C881.172 149.298 884.904 154.259 888.33 158.781C891.756 163.353 895.54 168.265 896.665 169.724C900.602 174.635 902.75 178.526 903.005 181.152C903.363 185.237 904.335 185.042 881.939 184.897C868.491 184.751 862.253 184.556 861.741 184.167C861.383 183.875 860.105 182.319 858.929 180.763C857.804 179.207 856.372 177.359 855.81 176.629C855.247 175.9 853.1 173.128 851.106 170.453C849.06 167.778 845.225 162.769 842.566 159.268C839.908 155.815 835.715 150.222 833.209 146.915C823.954 134.612 824.619 135.293 822.216 134.709C820.988 134.417 819.352 133.931 818.483 133.59C817.665 133.299 814.546 133.007 811.58 133.007H806.211L806.058 158.684C805.955 179.887 805.802 184.41 805.239 184.605C804.472 184.897 770.827 185.14 768.526 184.897Z" fill="#393C41"/>
<path d="M913.181 184.021C912.874 183.681 912.772 147.742 912.823 92.5455C912.976 16.3401 913.078 1.45895 913.692 0.82674C914.306 0.0972687 916.249 0 932.151 0C948.667 0 949.945 0.0486254 950.712 0.875359C951.53 1.70209 951.582 5.7385 951.582 48.7773V95.8038H956.337C959.098 95.8038 962.166 95.512 963.649 95.0744C965.03 94.6853 963.649 95.0744 967.279 94.3449C969.989 92.886 969.989 92.886 971.012 90.9407C971.421 90.3085 972.699 88.7037 973.876 87.342C975 85.9803 976.483 84.0837 977.148 83.1597C977.864 82.2357 978.835 80.9713 979.398 80.3877C980.574 79.0746 983.284 75.5245 986.965 70.5155C989.369 67.2086 991.925 63.9016 993.255 62.4427C994.022 61.5673 996.63 58.2604 1001.79 51.6952L1006.4 45.7135H1026.54H1046.69L1047.51 46.9779C1048.84 48.8745 1049.5 47.8047 1033.29 69.1538C1017.18 90.3085 1007.88 102.466 1001.85 110.101L999.186 113.506L1000.16 114.721C1005.73 121.676 1012.02 130.04 1019.54 140.302C1020.15 141.128 1022.2 143.803 1024.09 146.283C1025.98 148.763 1029 152.751 1030.84 155.183C1032.68 157.566 1036.05 161.991 1038.41 165.006C1043.98 172.155 1048.12 178.429 1048.53 180.325C1048.73 181.395 1048.58 182.27 1048.02 183.097L1047.2 184.313H1027.51H1007.83L1006.6 183C1005.27 181.541 996.272 169.869 985.431 155.62C968.762 133.639 969.478 134.466 967.791 134.077C966.87 133.834 965.336 133.445 964.365 133.104C962.319 132.472 953.831 132.326 952.502 132.91C951.633 133.25 951.582 135.098 951.479 158.83L951.326 184.362L932.509 184.459C919.112 184.507 913.539 184.41 913.181 184.021Z" fill="#393C41"/>
<path d="M378.638 183.827C370.713 182.708 364.986 180.422 359.822 176.337C355.526 172.885 352.305 169.043 350.004 164.617C345.453 155.718 345.658 159.9 345.658 75.7677V2.43155H364.321H382.985L383.087 23.6835L383.24 44.9354L405.483 44.8381C422.408 44.7895 427.777 44.9354 428.084 45.3731C428.544 46.0539 428.646 75.719 428.186 78.9774L427.828 81.263L406.046 81.2144C394.081 81.1658 383.956 81.1658 383.649 81.1658C382.78 81.2144 382.678 145.408 383.547 146.915C384.059 147.839 384.672 147.888 405.381 147.839C417.09 147.839 427.215 147.791 427.879 147.839H429.004V165.298C429.004 174.927 428.851 183.097 428.697 183.535C428.442 184.216 425.885 184.313 404.767 184.264C391.831 184.216 380.07 184.021 378.638 183.827Z" fill="#393C41"/>
<path d="M525.39 206.683C511.124 205.322 497.369 200.994 484.739 193.845C461.78 180.86 444.395 158.879 437.901 134.758C435.294 125.031 434.629 120.314 434.629 111.22C434.629 97.1655 436.981 86.0289 442.606 73.0443C449.815 56.461 463.621 40.6558 479.728 30.4919C492.409 22.4677 502.124 18.5286 515.163 16.0484C538.122 11.6715 560.467 14.4435 580.357 24.0725C585.113 26.3582 594.47 31.7077 595.186 32.4858C596.72 34.1879 597.027 34.0906 602.958 30.346C609.912 25.8719 623.462 19.4526 629.445 17.7991C639.007 15.0757 647.188 14.0058 658.182 14.0545C662.477 14.0545 666.721 14.1517 667.539 14.2976C668.408 14.3949 670.914 14.7353 673.163 15.0271C692.492 17.6046 714.939 28.1576 728.387 41.0449C734.727 47.0752 736.875 49.604 741.937 56.8501C751.959 71.0991 757.072 85.3967 758.862 104.412C759.834 114.721 758.351 126.879 754.669 138.502C752.471 145.505 749.709 151.681 746.181 157.42C744.954 159.414 743.982 161.116 743.982 161.262C743.982 161.699 736.261 171.717 734.318 173.76C723.938 184.848 713.865 192.337 701.798 197.881C673.726 210.866 639.723 210.185 611.651 196.13C606.179 193.407 602.6 191.316 598.254 188.252C597.487 187.717 596.72 188.058 592.425 190.781C581.943 197.589 567.83 203.085 554.791 205.516C547.735 206.781 533.111 207.364 525.39 206.683ZM547.223 198.173C564.966 196.082 582.556 189.079 593.652 179.644C594.368 179.061 595.544 178.185 596.311 177.748C597.691 176.921 597.691 176.921 599.89 178.818C603.163 181.687 612.878 187.766 617.224 189.711C631.286 196.082 644.836 198.951 659.869 198.805C671.885 198.708 683.799 196.228 696.429 191.17C710.848 185.431 726.597 172.155 735.903 157.906C738.92 153.286 743.88 143.608 745.414 139.28C748.738 130.186 750.272 120.898 750.221 110.345C750.221 105.919 750.067 101.883 749.965 101.348C749.812 100.813 749.556 99.1594 749.351 97.7005C748.891 94.2963 746.897 86.418 745.159 81.4089C742.091 72.5094 735.341 60.9351 728.745 53.3973C710.746 32.8262 679.709 20.2793 651.841 22.3218C643.353 22.954 638.342 23.9266 630.621 26.4555C619.985 29.9083 612.622 33.6529 603.572 40.1209C598.254 43.9628 597.845 43.2333 596.209 43.7682C595.8 43.2333 586.493 36.814 582.658 34.6255C573.761 29.6651 567.114 27.0391 557.706 24.802C548.706 22.6136 544.104 22.1759 533.366 22.4677C518.436 22.8568 508.362 25.2397 494.863 31.5131C480.7 38.1756 467.814 48.7287 459.94 60.2543C451.656 72.4121 449.202 77.3239 446.389 87.731C443.986 96.5333 443.168 104.023 443.475 113.263C443.884 124.691 445.111 130.575 449.56 141.955C454.162 153.87 460.962 163.742 471.138 173.371C476.456 178.38 478.654 180.082 486.631 185.188C502.84 195.595 526.361 200.604 547.223 198.173Z" fill="#785B9B"/>
</svg>
