<svg width="325" height="194" viewBox="0 0 325 194" fill="none" xmlns="http://www.w3.org/2000/svg">
<path d="M90.7607 192.653C76.4947 191.292 62.74 186.963 50.1102 179.815C27.1515 166.83 9.76638 144.849 3.27251 120.727C0.664739 111.001 0 106.284 0 97.1898C0 83.1354 2.3521 71.9988 7.97671 59.0142C15.1864 42.4309 28.9923 26.6257 45.0991 16.4617C57.7801 8.43755 67.4953 4.49842 80.5342 2.01822C103.493 -2.35861 125.838 0.413381 145.729 10.0424C150.484 12.3281 159.841 17.6775 160.557 18.4556C162.091 20.1577 162.398 20.0605 168.329 16.3158C175.283 11.8418 188.833 5.42242 194.816 3.76895C204.378 1.04559 212.559 -0.0243048 223.553 0.0243266C227.848 0.0243266 232.092 0.121589 232.91 0.267484C233.779 0.364746 236.285 0.705166 238.535 0.996954C257.863 3.57442 280.31 14.1274 293.758 27.0147C300.098 33.045 302.246 35.5739 307.308 42.8199C317.33 57.0689 322.444 71.3666 324.233 90.3814C325.205 100.691 323.722 112.849 320.04 124.472C317.842 131.475 315.08 137.651 311.552 143.39C310.325 145.384 309.354 147.086 309.354 147.232C309.354 147.669 301.632 157.687 299.689 159.73C289.309 170.818 279.236 178.307 267.169 183.851C239.097 196.836 205.094 196.155 177.022 182.1C171.551 179.377 167.971 177.286 163.625 174.222C162.858 173.687 162.091 174.027 157.796 176.751C147.314 183.559 133.201 189.055 120.162 191.486C113.106 192.751 98.4818 193.334 90.7607 192.653ZM112.594 184.143C130.338 182.052 147.927 175.049 159.023 165.614C159.739 165.031 160.915 164.155 161.682 163.718C163.063 162.891 163.063 162.891 165.261 164.787C168.534 167.657 178.249 173.736 182.595 175.681C196.657 182.052 210.207 184.921 225.24 184.775C237.256 184.678 249.17 182.198 261.8 177.14C276.219 171.401 291.968 158.125 301.275 143.876C304.291 139.256 309.251 129.578 310.785 125.25C314.109 116.156 315.643 106.867 315.592 96.3145C315.592 91.889 315.438 87.8526 315.336 87.3177C315.183 86.7827 314.927 85.1293 314.722 83.6703C314.262 80.2661 312.268 72.3878 310.53 67.3788C307.462 58.4793 300.712 46.905 294.116 39.3671C276.117 18.796 245.08 6.24914 217.212 8.29166C208.724 8.92387 203.713 9.8965 195.992 12.4253C185.356 15.8782 177.993 19.6228 168.943 26.0908C163.625 29.9326 163.216 29.2031 161.58 29.7381C161.171 29.2031 151.864 22.7838 148.03 20.5954C139.132 15.635 132.485 13.0089 123.077 10.7719C114.077 8.58345 109.475 8.14576 98.7375 8.43755C83.8067 8.8266 73.7335 11.2095 60.2345 17.483C46.0707 24.1455 33.1852 34.6985 25.3107 46.2241C17.0272 58.382 14.5729 63.2938 11.7605 73.7009C9.35731 82.5032 8.53921 89.9924 8.846 99.2324C9.25506 110.661 10.4822 116.545 14.9308 127.925C19.5327 139.84 26.3334 149.712 36.5088 159.341C41.8267 164.35 44.0253 166.052 52.002 171.158C68.2112 181.565 91.7322 186.574 112.594 184.143Z" fill="#785B9B"/>
</svg>
