<svg width="1056" height="197" viewBox="0 0 1056 197" fill="none" xmlns="http://www.w3.org/2000/svg">
<path d="M537.279 181.581C528.586 181.144 517.234 178.809 509.513 175.892C487.629 167.478 469.528 149.29 461.295 127.406C457.869 118.263 457 112.865 457 100.513C457.051 91.3216 457.205 89.0845 458.176 84.7077C461.807 68.708 468.863 56.0638 480.828 44.295C487.68 37.5839 493.355 33.6934 503.224 29.0248C524.137 19.104 544.795 17.4019 565.913 23.724C568.163 24.4048 570.719 25.2802 571.538 25.6206C572.407 25.961 574.759 26.9336 576.753 27.7604C588.411 32.5749 602.319 43.7115 609.989 54.3617C615.307 61.8023 620.011 71.5286 622.159 79.5528C623.744 85.4372 624.971 94.0936 624.971 99.443C625.074 116.513 635.249 130.373 651.56 135.625C656.06 137.084 665.264 137.667 670.07 136.792C682.189 134.652 694.001 125.266 698.245 114.519C700.494 108.829 700.852 107.03 700.852 100.999C700.801 96.5738 700.546 94.2395 699.676 91.273C695.944 78.1425 685.717 68.6594 671.4 65.012C666.951 63.8935 656.98 64.2339 652.327 65.6442C644.044 68.173 635.198 74.3492 632.181 79.7473C631.261 81.4008 630.749 81.0604 630.136 78.2884C629.624 76.1 628.551 72.793 627.068 68.9025C626.863 68.3676 625.022 64.7202 622.977 60.7811C619.244 53.5836 615.716 48.4287 611.063 43.2252L608.507 40.4045L610.756 38.5079C620.369 31.6509 620.318 31.4563 622.926 30.1919C624.46 29.2193 622.895 30.2037 624.46 29.2193C626.025 28.2349 624.46 29.2193 625.994 28.2467C628.551 27.274 627.988 27.6631 629.062 27.274C633.664 25.8151 644.811 21.9732 651.305 20.952C665.775 18.7149 682.751 20.8061 696.046 26.4959C705.403 30.4837 708.778 32.2831 714.505 36.3681C726.265 44.7327 738.435 61.0242 743.088 74.4951C749.071 92.0024 748.662 114.373 742.065 130.227C735.776 145.205 725.345 157.849 711.641 167.138C697.273 176.864 681.729 181.581 664.088 181.63C640.925 181.63 620.369 173.752 604.109 158.53C587.747 143.211 579.872 125.364 578.747 100.853C578.44 94.8231 576.395 86.8475 574.043 82.7138C570.464 76.489 564.379 71.0909 557.22 67.8813C551.187 65.1579 547.198 64.2825 540.602 64.2825C533.853 64.2825 530.58 65.0606 523.831 68.2217C519.331 70.3128 517.848 71.3341 514.064 74.8842C510.332 78.4343 509.207 79.8446 507.212 83.7351C503.94 90.1058 503.122 93.4614 503.122 100.27C503.122 106.592 503.94 110.482 506.292 115.443C512.633 128.914 526.183 137.23 541.727 137.23C549.755 137.23 556.965 134.847 564.174 129.886C567.242 127.747 571.384 123.564 571.895 122.057C572.253 121.084 573.838 122.057 573.838 123.272C573.838 126.336 580.23 140.926 584.167 146.956C586.571 150.603 590.968 156.244 593.064 158.384C593.831 159.211 594.905 160.33 595.468 160.962L596.49 162.032L595.263 163.296C593.985 164.609 584.985 170.785 584.321 170.785C584.116 170.785 583.349 171.174 582.633 171.661C579.872 173.46 568.623 177.691 562.998 179.053C554.971 180.949 544.795 181.97 537.279 181.581Z" fill="#393C41"/>
<path d="M2.40325 183.951L0 183.805L0.102272 108.816L1.02266 33.583L1.43171 29.9357C4.60195 13.6442 18.5101 4.01515 35.2816 1.48631C37.3781 1.19453 56.3995 1 86.4145 1C136.32 1 137.189 1.04863 144.195 3.09114C150.279 4.89051 157.387 9.12145 161.58 13.4983C166.488 18.5559 170.579 26.6287 171.755 33.6317C172.113 35.6742 172.318 61.5461 172.318 110.323V183.854H152.631H132.945V153.946V124.037L86.3122 124.135L39.6279 124.281L39.3723 154.092L39.1166 183.951L21.9871 184C12.5787 184.049 3.78383 184.049 2.40325 183.951ZM132.945 63.0537C132.945 47.2485 132.792 40.3428 132.383 40.0996C131.667 39.662 40.7017 39.662 39.9347 40.0996C39.5257 40.3428 39.3723 46.6649 39.3723 63.0537V85.6186H86.1588H132.945V63.0537Z" fill="#393C41"/>
<path d="M236.842 184.751C224.008 184.167 215.98 181.006 208.923 173.76C205.14 169.918 205.395 170.21 200.947 160.727L199.259 154.648L198.85 100.813L198.697 46.1998H210.253C221.758 46.1998 222.076 46.446 221.758 46.1998C222.78 46.1998 222.32 46.1998 223.292 46.1998C224.263 46.1998 224.826 46.1998 225.337 46.1998C230.604 46.2971 227.638 46.2484 230.604 46.2971L235.819 46.443L235.922 96.5333C235.973 124.107 236.126 147.013 236.28 147.499C236.484 148.277 238.376 148.326 266.704 148.326H296.923V97.2628V46.1998H315.586H334.25V98.6244C334.25 155.329 334.199 156.301 331.489 163.061C328.779 169.869 324.432 174.927 317.887 178.915C314.001 181.298 307.968 183.583 303.519 184.313C299.838 184.897 247.887 185.237 236.842 184.751Z" fill="#393C41"/>
<path d="M775.526 184.897L774.094 184.751V93.4209C774.094 5.54397 774.146 2.04251 775.015 1.31304C775.884 0.583566 777.929 0.486298 793.627 0.486298C809.427 0.486298 811.37 0.583566 811.984 1.31304C812.649 2.04251 812.904 30.2973 812.955 95.9011C812.955 96.436 824.562 95.9497 827.63 95.3175C829.983 94.8312 830.443 94.4908 832.488 91.816C833.664 90.2112 838.062 84.6186 842.152 79.3178C846.294 74.0656 851.203 67.8408 853.095 65.4092C854.935 63.0263 859.077 57.7741 862.247 53.7377L868.077 46.6861L887.763 46.2971C909.238 46.1998 909.085 46.1512 909.085 48.9232C909.085 50.3335 907.602 53.2514 905.864 55.2452C905.199 56.0233 903.154 58.7467 901.313 61.2755C898.143 65.701 890.166 76.2054 884.797 83.111C883.416 84.9104 880.451 88.8009 878.252 91.7188C876.053 94.6367 872.781 98.8676 870.991 101.153C866.031 107.329 861.532 113.506 861.532 114.041C861.532 114.332 863.423 116.958 865.724 119.876C868.025 122.843 873.292 129.7 877.383 135.195C881.473 140.691 885.769 146.38 886.996 147.839C888.172 149.298 891.904 154.259 895.33 158.781C898.756 163.353 902.54 168.265 903.665 169.724C907.602 174.635 909.75 178.526 910.005 181.152C910.363 185.237 911.335 185.042 888.939 184.897C875.491 184.751 869.253 184.556 868.741 184.167C868.383 183.875 867.105 182.319 865.929 180.763C864.804 179.207 863.372 177.359 862.81 176.629C862.247 175.9 860.1 173.128 858.106 170.453C856.06 167.778 852.225 162.769 849.566 159.268C846.908 155.815 842.715 150.222 840.209 146.915C830.954 134.612 831.619 135.293 829.216 134.709C827.988 134.417 826.352 133.931 825.483 133.59C824.665 133.299 821.546 133.007 818.58 133.007H813.211L813.058 158.684C812.955 179.887 812.802 184.41 812.239 184.605C811.472 184.897 777.827 185.14 775.526 184.897Z" fill="#393C41"/>
<path d="M920.181 184.021C919.874 183.681 919.772 147.742 919.823 92.5455C919.976 16.3401 920.078 1.45895 920.692 0.82674C921.306 0.0972687 923.249 0 939.151 0C955.667 0 956.945 0.0486254 957.712 0.875359C958.53 1.70209 958.582 5.7385 958.582 48.7773V95.8038H963.337C966.098 95.8038 969.166 95.512 970.649 95.0744C972.03 94.6853 970.649 95.0744 974.279 94.3449C976.989 92.886 976.989 92.886 978.012 90.9407C978.421 90.3085 979.699 88.7037 980.876 87.342C982 85.9803 983.483 84.0837 984.148 83.1597C984.864 82.2357 985.835 80.9713 986.398 80.3877C987.574 79.0746 990.284 75.5245 993.965 70.5155C996.369 67.2086 998.925 63.9016 1000.25 62.4427C1001.02 61.5673 1003.63 58.2604 1008.79 51.6952L1013.4 45.7135H1033.54H1053.69L1054.51 46.9779C1055.84 48.8745 1056.5 47.8047 1040.29 69.1538C1024.18 90.3085 1014.88 102.466 1008.85 110.101L1006.19 113.506L1007.16 114.721C1012.73 121.676 1019.02 130.04 1026.54 140.302C1027.15 141.128 1029.2 143.803 1031.09 146.283C1032.98 148.763 1036 152.751 1037.84 155.183C1039.68 157.566 1043.05 161.991 1045.41 165.006C1050.98 172.155 1055.12 178.429 1055.53 180.325C1055.73 181.395 1055.58 182.27 1055.02 183.097L1054.2 184.313H1034.51H1014.83L1013.6 183C1012.27 181.541 1003.27 169.869 992.431 155.62C975.762 133.639 976.478 134.466 974.791 134.077C973.87 133.834 972.336 133.445 971.365 133.104C969.319 132.472 960.831 132.326 959.502 132.91C958.633 133.25 958.582 135.098 958.479 158.83L958.326 184.362L939.509 184.459C926.112 184.507 920.539 184.41 920.181 184.021Z" fill="#393C41"/>
<path d="M386.982 196.395C379.056 195.277 373.33 192.991 368.165 188.906C363.87 185.453 360.649 181.611 358.348 177.186C353.797 168.286 354.001 172.468 354.001 88.3361V15H372.665H391.328L391.431 36.2519L391.584 57.5038L413.827 57.4066C430.752 57.3579 436.121 57.5038 436.427 57.9415C436.888 58.6223 436.99 88.2875 436.53 91.5458L436.172 93.8315L414.389 93.7828C402.424 93.7342 392.3 93.7342 391.993 93.7342C391.124 93.7828 391.022 157.976 391.891 159.484C392.402 160.408 393.016 160.456 413.725 160.408C425.434 160.408 435.558 160.359 436.223 160.408H437.348V177.867C437.348 187.496 437.194 195.666 437.041 196.103C436.785 196.784 434.229 196.881 413.111 196.833C400.174 196.784 388.414 196.59 386.982 196.395Z" fill="#393C41"/>
</svg>
